<svg width="1116" height="215" viewBox="0 0 1116 215" fill="none" xmlns="http://www.w3.org/2000/svg">
<g clip-path="url(#clip0_76_3)">
<rect width="1116" height="215" fill="#D42300"/>
<path d="M82.41 132L64.63 110.23V132H54.83V83.14H64.63V105.05L82.41 83.14H94.24L74.08 107.36L94.8 132H82.41ZM98.726 112.47C98.726 108.55 99.496 105.073 101.036 102.04C102.623 99.0067 104.746 96.6733 107.406 95.04C110.113 93.4067 113.123 92.59 116.436 92.59C119.329 92.59 121.849 93.1733 123.996 94.34C126.189 95.5067 127.939 96.9767 129.246 98.75V93.22H139.116V132H129.246V126.33C127.986 128.15 126.236 129.667 123.996 130.88C121.803 132.047 119.259 132.63 116.366 132.63C113.099 132.63 110.113 131.79 107.406 130.11C104.746 128.43 102.623 126.073 101.036 123.04C99.496 119.96 98.726 116.437 98.726 112.47ZM129.246 112.61C129.246 110.23 128.779 108.2 127.846 106.52C126.913 104.793 125.653 103.487 124.066 102.6C122.479 101.667 120.776 101.2 118.956 101.2C117.136 101.2 115.456 101.643 113.916 102.53C112.376 103.417 111.116 104.723 110.136 106.45C109.203 108.13 108.736 110.137 108.736 112.47C108.736 114.803 109.203 116.857 110.136 118.63C111.116 120.357 112.376 121.687 113.916 122.62C115.503 123.553 117.183 124.02 118.956 124.02C120.776 124.02 122.479 123.577 124.066 122.69C125.653 121.757 126.913 120.45 127.846 118.77C128.779 117.043 129.246 114.99 129.246 112.61ZM153.657 88.6C151.931 88.6 150.484 88.0633 149.317 86.99C148.197 85.87 147.637 84.4933 147.637 82.86C147.637 81.2267 148.197 79.8733 149.317 78.8C150.484 77.68 151.931 77.12 153.657 77.12C155.384 77.12 156.807 77.68 157.927 78.8C159.094 79.8733 159.677 81.2267 159.677 82.86C159.677 84.4933 159.094 85.87 157.927 86.99C156.807 88.0633 155.384 88.6 153.657 88.6ZM158.487 93.22V132H148.687V93.22H158.487ZM165.65 112.47C165.65 108.55 166.42 105.073 167.96 102.04C169.547 99.0067 171.67 96.6733 174.33 95.04C177.037 93.4067 180.047 92.59 183.36 92.59C186.253 92.59 188.773 93.1733 190.92 94.34C193.113 95.5067 194.863 96.9767 196.17 98.75V93.22H206.04V132H196.17V126.33C194.91 128.15 193.16 129.667 190.92 130.88C188.727 132.047 186.183 132.63 183.29 132.63C180.023 132.63 177.037 131.79 174.33 130.11C171.67 128.43 169.547 126.073 167.96 123.04C166.42 119.96 165.65 116.437 165.65 112.47ZM196.17 112.61C196.17 110.23 195.703 108.2 194.77 106.52C193.837 104.793 192.577 103.487 190.99 102.6C189.403 101.667 187.7 101.2 185.88 101.2C184.06 101.2 182.38 101.643 180.84 102.53C179.3 103.417 178.04 104.723 177.06 106.45C176.127 108.13 175.66 110.137 175.66 112.47C175.66 114.803 176.127 116.857 177.06 118.63C178.04 120.357 179.3 121.687 180.84 122.62C182.427 123.553 184.107 124.02 185.88 124.02C187.7 124.02 189.403 123.577 190.99 122.69C192.577 121.757 193.837 120.45 194.77 118.77C195.703 117.043 196.17 114.99 196.17 112.61ZM238.571 132L225.411 115.48V132H215.611V80.2H225.411V109.67L238.431 93.22H251.171L234.091 112.68L251.311 132H238.571Z" fill="white"/>
<rect x="357.282" y="107" width="443.602" height="44.9292" transform="rotate(66.7543 357.282 107)" fill="#6428C6"/>
<rect x="377.282" y="-122" width="443.602" height="44.9292" transform="rotate(66.7543 377.282 -122)" fill="#6428C6"/>
<rect x="421.282" y="-297" width="443.602" height="44.9292" transform="rotate(66.7543 421.282 -297)" fill="#6428C6"/>
<path d="M647.52 94.2V111.92C647.52 114.027 648.067 115.613 649.16 116.68C650.28 117.747 651.827 118.28 653.8 118.28C655.8 118.28 657.347 117.747 658.44 116.68C659.56 115.613 660.12 114.027 660.12 111.92V94.2H664.68V111.84C664.68 114.107 664.187 116.027 663.2 117.6C662.213 119.173 660.893 120.347 659.24 121.12C657.587 121.893 655.76 122.28 653.76 122.28C651.76 122.28 649.933 121.893 648.28 121.12C646.653 120.347 645.36 119.173 644.4 117.6C643.44 116.027 642.96 114.107 642.96 111.84V94.2H647.52ZM697.297 99.6C699.031 99.6 700.577 99.96 701.937 100.68C703.324 101.4 704.404 102.467 705.177 103.88C705.977 105.293 706.377 107 706.377 109V122H701.857V109.68C701.857 107.707 701.364 106.2 700.377 105.16C699.391 104.093 698.044 103.56 696.337 103.56C694.631 103.56 693.271 104.093 692.257 105.16C691.271 106.2 690.777 107.707 690.777 109.68V122H686.257V109.68C686.257 107.707 685.764 106.2 684.777 105.16C683.791 104.093 682.444 103.56 680.737 103.56C679.031 103.56 677.671 104.093 676.657 105.16C675.671 106.2 675.177 107.707 675.177 109.68V122H670.617V99.96H675.177V102.48C675.924 101.573 676.871 100.867 678.017 100.36C679.164 99.8533 680.391 99.6 681.697 99.6C683.457 99.6 685.031 99.9733 686.417 100.72C687.804 101.467 688.871 102.547 689.617 103.96C690.284 102.627 691.324 101.573 692.737 100.8C694.151 100 695.671 99.6 697.297 99.6ZM721.05 110.88C721.05 108.667 721.504 106.707 722.41 105C723.344 103.293 724.597 101.973 726.17 101.04C727.77 100.08 729.53 99.6 731.45 99.6C733.184 99.6 734.69 99.9467 735.97 100.64C737.277 101.307 738.317 102.147 739.09 103.16V99.96H743.69V122H739.09V118.72C738.317 119.76 737.264 120.627 735.93 121.32C734.597 122.013 733.077 122.36 731.37 122.36C729.477 122.36 727.744 121.88 726.17 120.92C724.597 119.933 723.344 118.573 722.41 116.84C721.504 115.08 721.05 113.093 721.05 110.88ZM739.09 110.96C739.09 109.44 738.77 108.12 738.13 107C737.517 105.88 736.704 105.027 735.69 104.44C734.677 103.853 733.584 103.56 732.41 103.56C731.237 103.56 730.144 103.853 729.13 104.44C728.117 105 727.29 105.84 726.65 106.96C726.037 108.053 725.73 109.36 725.73 110.88C725.73 112.4 726.037 113.733 726.65 114.88C727.29 116.027 728.117 116.907 729.13 117.52C730.17 118.107 731.264 118.4 732.41 118.4C733.584 118.4 734.677 118.107 735.69 117.52C736.704 116.933 737.517 116.08 738.13 114.96C738.77 113.813 739.09 112.48 739.09 110.96ZM754.24 103.16C754.906 102.04 755.786 101.173 756.88 100.56C758 99.92 759.32 99.6 760.84 99.6V104.32H759.68C757.893 104.32 756.533 104.773 755.6 105.68C754.693 106.587 754.24 108.16 754.24 110.4V122H749.68V99.96H754.24V103.16ZM774.591 122.36C772.511 122.36 770.631 121.893 768.951 120.96C767.271 120 765.951 118.667 764.991 116.96C764.031 115.227 763.551 113.227 763.551 110.96C763.551 108.72 764.045 106.733 765.031 105C766.018 103.267 767.365 101.933 769.071 101C770.778 100.067 772.685 99.6 774.791 99.6C776.898 99.6 778.805 100.067 780.511 101C782.218 101.933 783.565 103.267 784.551 105C785.538 106.733 786.031 108.72 786.031 110.96C786.031 113.2 785.525 115.187 784.511 116.92C783.498 118.653 782.111 120 780.351 120.96C778.618 121.893 776.698 122.36 774.591 122.36ZM774.591 118.4C775.765 118.4 776.858 118.12 777.871 117.56C778.911 117 779.751 116.16 780.391 115.04C781.031 113.92 781.351 112.56 781.351 110.96C781.351 109.36 781.045 108.013 780.431 106.92C779.818 105.8 779.005 104.96 777.991 104.4C776.978 103.84 775.885 103.56 774.711 103.56C773.538 103.56 772.445 103.84 771.431 104.4C770.445 104.96 769.658 105.8 769.071 106.92C768.485 108.013 768.191 109.36 768.191 110.96C768.191 113.333 768.791 115.173 769.991 116.48C771.218 117.76 772.751 118.4 774.591 118.4ZM817.219 99.6C818.952 99.6 820.499 99.96 821.859 100.68C823.246 101.4 824.326 102.467 825.099 103.88C825.899 105.293 826.299 107 826.299 109V122H821.779V109.68C821.779 107.707 821.286 106.2 820.299 105.16C819.312 104.093 817.966 103.56 816.259 103.56C814.552 103.56 813.192 104.093 812.179 105.16C811.192 106.2 810.699 107.707 810.699 109.68V122H806.179V109.68C806.179 107.707 805.686 106.2 804.699 105.16C803.712 104.093 802.366 103.56 800.659 103.56C798.952 103.56 797.592 104.093 796.579 105.16C795.592 106.2 795.099 107.707 795.099 109.68V122H790.539V99.96H795.099V102.48C795.846 101.573 796.792 100.867 797.939 100.36C799.086 99.8533 800.312 99.6 801.619 99.6C803.379 99.6 804.952 99.9733 806.339 100.72C807.726 101.467 808.792 102.547 809.539 103.96C810.206 102.627 811.246 101.573 812.659 100.8C814.072 100 815.592 99.6 817.219 99.6ZM830.582 110.88C830.582 108.667 831.035 106.707 831.942 105C832.875 103.293 834.128 101.973 835.702 101.04C837.302 100.08 839.062 99.6 840.982 99.6C842.715 99.6 844.222 99.9467 845.502 100.64C846.808 101.307 847.848 102.147 848.622 103.16V99.96H853.222V122H848.622V118.72C847.848 119.76 846.795 120.627 845.462 121.32C844.128 122.013 842.608 122.36 840.902 122.36C839.008 122.36 837.275 121.88 835.702 120.92C834.128 119.933 832.875 118.573 831.942 116.84C831.035 115.08 830.582 113.093 830.582 110.88ZM848.622 110.96C848.622 109.44 848.302 108.12 847.662 107C847.048 105.88 846.235 105.027 845.222 104.44C844.208 103.853 843.115 103.56 841.942 103.56C840.768 103.56 839.675 103.853 838.662 104.44C837.648 105 836.822 105.84 836.182 106.96C835.568 108.053 835.262 109.36 835.262 110.88C835.262 112.4 835.568 113.733 836.182 114.88C836.822 116.027 837.648 116.907 838.662 117.52C839.702 118.107 840.795 118.4 841.942 118.4C843.115 118.4 844.208 118.107 845.222 117.52C846.235 116.933 847.048 116.08 847.662 114.96C848.302 113.813 848.622 112.48 848.622 110.96ZM896.282 99.6C898.015 99.6 899.562 99.96 900.922 100.68C902.308 101.4 903.388 102.467 904.162 103.88C904.962 105.293 905.362 107 905.362 109V122H900.842V109.68C900.842 107.707 900.348 106.2 899.362 105.16C898.375 104.093 897.028 103.56 895.322 103.56C893.615 103.56 892.255 104.093 891.242 105.16C890.255 106.2 889.762 107.707 889.762 109.68V122H885.242V109.68C885.242 107.707 884.748 106.2 883.762 105.16C882.775 104.093 881.428 103.56 879.722 103.56C878.015 103.56 876.655 104.093 875.642 105.16C874.655 106.2 874.162 107.707 874.162 109.68V122H869.602V99.96H874.162V102.48C874.908 101.573 875.855 100.867 877.002 100.36C878.148 99.8533 879.375 99.6 880.682 99.6C882.442 99.6 884.015 99.9733 885.402 100.72C886.788 101.467 887.855 102.547 888.602 103.96C889.268 102.627 890.308 101.573 891.722 100.8C893.135 100 894.655 99.6 896.282 99.6ZM909.644 110.88C909.644 108.667 910.097 106.707 911.004 105C911.937 103.293 913.191 101.973 914.764 101.04C916.364 100.08 918.124 99.6 920.044 99.6C921.777 99.6 923.284 99.9467 924.564 100.64C925.871 101.307 926.911 102.147 927.684 103.16V99.96H932.284V122H927.684V118.72C926.911 119.76 925.857 120.627 924.524 121.32C923.191 122.013 921.671 122.36 919.964 122.36C918.071 122.36 916.337 121.88 914.764 120.92C913.191 119.933 911.937 118.573 911.004 116.84C910.097 115.08 909.644 113.093 909.644 110.88ZM927.684 110.96C927.684 109.44 927.364 108.12 926.724 107C926.111 105.88 925.297 105.027 924.284 104.44C923.271 103.853 922.177 103.56 921.004 103.56C919.831 103.56 918.737 103.853 917.724 104.44C916.711 105 915.884 105.84 915.244 106.96C914.631 108.053 914.324 109.36 914.324 110.88C914.324 112.4 914.631 113.733 915.244 114.88C915.884 116.027 916.711 116.907 917.724 117.52C918.764 118.107 919.857 118.4 921.004 118.4C922.177 118.4 923.271 118.107 924.284 117.52C925.297 116.933 926.111 116.08 926.724 114.96C927.364 113.813 927.684 112.48 927.684 110.96ZM942.833 103.16C943.5 102.04 944.38 101.173 945.473 100.56C946.593 99.92 947.913 99.6 949.433 99.6V104.32H948.273C946.487 104.32 945.127 104.773 944.193 105.68C943.287 106.587 942.833 108.16 942.833 110.4V122H938.273V99.96H942.833V103.16ZM952.105 110.96C952.105 108.693 952.558 106.707 953.465 105C954.398 103.267 955.678 101.933 957.305 101C958.932 100.067 960.798 99.6 962.905 99.6C965.572 99.6 967.772 100.24 969.505 101.52C971.265 102.773 972.452 104.573 973.065 106.92H968.145C967.745 105.827 967.105 104.973 966.225 104.36C965.345 103.747 964.238 103.44 962.905 103.44C961.038 103.44 959.545 104.107 958.425 105.44C957.332 106.747 956.785 108.587 956.785 110.96C956.785 113.333 957.332 115.187 958.425 116.52C959.545 117.853 961.038 118.52 962.905 118.52C965.545 118.52 967.292 117.36 968.145 115.04H973.065C972.425 117.28 971.225 119.067 969.465 120.4C967.705 121.707 965.518 122.36 962.905 122.36C960.798 122.36 958.932 121.893 957.305 120.96C955.678 120 954.398 118.667 953.465 116.96C952.558 115.227 952.105 113.227 952.105 110.96ZM976.089 110.88C976.089 108.667 976.543 106.707 977.449 105C978.383 103.293 979.636 101.973 981.209 101.04C982.809 100.08 984.569 99.6 986.489 99.6C988.223 99.6 989.729 99.9467 991.009 100.64C992.316 101.307 993.356 102.147 994.129 103.16V99.96H998.729V122H994.129V118.72C993.356 119.76 992.303 120.627 990.969 121.32C989.636 122.013 988.116 122.36 986.409 122.36C984.516 122.36 982.783 121.88 981.209 120.92C979.636 119.933 978.383 118.573 977.449 116.84C976.543 115.08 976.089 113.093 976.089 110.88ZM994.129 110.96C994.129 109.44 993.809 108.12 993.169 107C992.556 105.88 991.743 105.027 990.729 104.44C989.716 103.853 988.623 103.56 987.449 103.56C986.276 103.56 985.183 103.853 984.169 104.44C983.156 105 982.329 105.84 981.689 106.96C981.076 108.053 980.769 109.36 980.769 110.88C980.769 112.4 981.076 113.733 981.689 114.88C982.329 116.027 983.156 116.907 984.169 117.52C985.209 118.107 986.303 118.4 987.449 118.4C988.623 118.4 989.716 118.107 990.729 117.52C991.743 116.933 992.556 116.08 993.169 114.96C993.809 113.813 994.129 112.48 994.129 110.96ZM1015.84 99.6C1017.57 99.6 1019.12 99.96 1020.48 100.68C1021.87 101.4 1022.95 102.467 1023.72 103.88C1024.49 105.293 1024.88 107 1024.88 109V122H1020.36V109.68C1020.36 107.707 1019.87 106.2 1018.88 105.16C1017.89 104.093 1016.55 103.56 1014.84 103.56C1013.13 103.56 1011.77 104.093 1010.76 105.16C1009.77 106.2 1009.28 107.707 1009.28 109.68V122H1004.72V99.96H1009.28V102.48C1010.03 101.573 1010.97 100.867 1012.12 100.36C1013.29 99.8533 1014.53 99.6 1015.84 99.6ZM1036.02 103.68V115.88C1036.02 116.707 1036.2 117.307 1036.58 117.68C1036.98 118.027 1037.64 118.2 1038.58 118.2H1041.38V122H1037.78C1035.72 122 1034.15 121.52 1033.06 120.56C1031.96 119.6 1031.42 118.04 1031.42 115.88V103.68H1028.82V99.96H1031.42V94.48H1036.02V99.96H1041.38V103.68H1036.02ZM1065.78 110.44C1065.78 111.267 1065.72 112.013 1065.62 112.68H1048.78C1048.91 114.44 1049.56 115.853 1050.74 116.92C1051.91 117.987 1053.35 118.52 1055.06 118.52C1057.51 118.52 1059.24 117.493 1060.26 115.44H1065.18C1064.51 117.467 1063.3 119.133 1061.54 120.44C1059.8 121.72 1057.64 122.36 1055.06 122.36C1052.95 122.36 1051.06 121.893 1049.38 120.96C1047.72 120 1046.42 118.667 1045.46 116.96C1044.52 115.227 1044.06 113.227 1044.06 110.96C1044.06 108.693 1044.51 106.707 1045.42 105C1046.35 103.267 1047.64 101.933 1049.3 101C1050.98 100.067 1052.9 99.6 1055.06 99.6C1057.14 99.6 1058.99 100.053 1060.62 100.96C1062.24 101.867 1063.51 103.147 1064.42 104.8C1065.32 106.427 1065.78 108.307 1065.78 110.44ZM1061.02 109C1060.99 107.32 1060.39 105.973 1059.22 104.96C1058.04 103.947 1056.59 103.44 1054.86 103.44C1053.28 103.44 1051.94 103.947 1050.82 104.96C1049.7 105.947 1049.03 107.293 1048.82 109H1061.02Z" fill="white"/>
</g>
<defs>
<clipPath id="clip0_76_3">
<rect width="1116" height="215" fill="white"/>
</clipPath>
</defs>
</svg>
