<svg width="1116" height="215" viewBox="0 0 1116 215" fill="none" xmlns="http://www.w3.org/2000/svg">
<g clip-path="url(#clip0_80_56)">
<rect width="1116" height="215" fill="#6428C6"/>
<path d="M379.85 85.35H365.95L363.65 92H356.3L368.85 57.05H377L389.55 92H382.15L379.85 85.35ZM377.95 79.75L372.9 65.15L367.85 79.75H377.95ZM432.291 57.1V92H425.291V69.3L415.941 92H410.641L401.241 69.3V92H394.241V57.1H402.191L413.291 83.05L424.391 57.1H432.291ZM446.212 57.1V92H439.212V57.1H446.212ZM477.428 67.6C476.628 66.1333 475.528 65.0167 474.128 64.25C472.728 63.4833 471.094 63.1 469.228 63.1C467.161 63.1 465.328 63.5667 463.728 64.5C462.128 65.4333 460.878 66.7667 459.978 68.5C459.078 70.2333 458.628 72.2333 458.628 74.5C458.628 76.8333 459.078 78.8667 459.978 80.6C460.911 82.3333 462.194 83.6667 463.828 84.6C465.461 85.5333 467.361 86 469.528 86C472.194 86 474.378 85.3 476.078 83.9C477.778 82.4667 478.894 80.4833 479.428 77.95H467.428V72.6H486.328V78.7C485.861 81.1333 484.861 83.3833 483.328 85.45C481.794 87.5167 479.811 89.1833 477.378 90.45C474.978 91.6833 472.278 92.3 469.278 92.3C465.911 92.3 462.861 91.55 460.128 90.05C457.428 88.5167 455.294 86.4 453.728 83.7C452.194 81 451.428 77.9333 451.428 74.5C451.428 71.0667 452.194 68 453.728 65.3C455.294 62.5667 457.428 60.45 460.128 58.95C462.861 57.4167 465.894 56.65 469.228 56.65C473.161 56.65 476.578 57.6167 479.478 59.55C482.378 61.45 484.378 64.1333 485.478 67.6H477.428ZM507.707 92.35C504.44 92.35 501.44 91.5833 498.707 90.05C495.973 88.5167 493.807 86.4 492.207 83.7C490.607 80.9667 489.807 77.8833 489.807 74.45C489.807 71.05 490.607 68 492.207 65.3C493.807 62.5667 495.973 60.4333 498.707 58.9C501.44 57.3667 504.44 56.6 507.707 56.6C511.007 56.6 514.007 57.3667 516.707 58.9C519.44 60.4333 521.59 62.5667 523.157 65.3C524.757 68 525.557 71.05 525.557 74.45C525.557 77.8833 524.757 80.9667 523.157 83.7C521.59 86.4 519.44 88.5167 516.707 90.05C513.973 91.5833 510.973 92.35 507.707 92.35ZM507.707 86.1C509.807 86.1 511.657 85.6333 513.257 84.7C514.857 83.7333 516.107 82.3667 517.007 80.6C517.907 78.8333 518.357 76.7833 518.357 74.45C518.357 72.1167 517.907 70.0833 517.007 68.35C516.107 66.5833 514.857 65.2333 513.257 64.3C511.657 63.3667 509.807 62.9 507.707 62.9C505.607 62.9 503.74 63.3667 502.107 64.3C500.507 65.2333 499.257 66.5833 498.357 68.35C497.457 70.0833 497.007 72.1167 497.007 74.45C497.007 76.7833 497.457 78.8333 498.357 80.6C499.257 82.3667 500.507 83.7333 502.107 84.7C503.74 85.6333 505.607 86.1 507.707 86.1ZM554.729 92.35C552.295 92.35 550.095 91.9333 548.129 91.1C546.195 90.2667 544.662 89.0667 543.529 87.5C542.395 85.9333 541.812 84.0833 541.779 81.95H549.279C549.379 83.3833 549.879 84.5167 550.779 85.35C551.712 86.1833 552.979 86.6 554.579 86.6C556.212 86.6 557.495 86.2167 558.429 85.45C559.362 84.65 559.829 83.6167 559.829 82.35C559.829 81.3167 559.512 80.4667 558.879 79.8C558.245 79.1333 557.445 78.6167 556.479 78.25C555.545 77.85 554.245 77.4167 552.579 76.95C550.312 76.2833 548.462 75.6333 547.029 75C545.629 74.3333 544.412 73.35 543.379 72.05C542.379 70.7167 541.879 68.95 541.879 66.75C541.879 64.6833 542.395 62.8833 543.429 61.35C544.462 59.8167 545.912 58.65 547.779 57.85C549.645 57.0167 551.779 56.6 554.179 56.6C557.779 56.6 560.695 57.4833 562.929 59.25C565.195 60.9833 566.445 63.4167 566.679 66.55H558.979C558.912 65.35 558.395 64.3667 557.429 63.6C556.495 62.8 555.245 62.4 553.679 62.4C552.312 62.4 551.212 62.75 550.379 63.45C549.579 64.15 549.179 65.1667 549.179 66.5C549.179 67.4333 549.479 68.2167 550.079 68.85C550.712 69.45 551.479 69.95 552.379 70.35C553.312 70.7167 554.612 71.15 556.279 71.65C558.545 72.3167 560.395 72.9833 561.829 73.65C563.262 74.3167 564.495 75.3167 565.529 76.65C566.562 77.9833 567.079 79.7333 567.079 81.9C567.079 83.7667 566.595 85.5 565.629 87.1C564.662 88.7 563.245 89.9833 561.379 90.95C559.512 91.8833 557.295 92.35 554.729 92.35ZM580.147 62.75V71.5H591.897V77.05H580.147V86.3H593.397V92H573.147V57.05H593.397V62.75H580.147ZM598.059 74.5C598.059 71.0667 598.825 68 600.359 65.3C601.925 62.5667 604.042 60.45 606.709 58.95C609.409 57.4167 612.425 56.65 615.759 56.65C619.659 56.65 623.075 57.65 626.009 59.65C628.942 61.65 630.992 64.4167 632.159 67.95H624.109C623.309 66.2833 622.175 65.0333 620.709 64.2C619.275 63.3667 617.609 62.95 615.709 62.95C613.675 62.95 611.859 63.4333 610.259 64.4C608.692 65.3333 607.459 66.6667 606.559 68.4C605.692 70.1333 605.259 72.1667 605.259 74.5C605.259 76.8 605.692 78.8333 606.559 80.6C607.459 82.3333 608.692 83.6833 610.259 84.65C611.859 85.5833 613.675 86.05 615.709 86.05C617.609 86.05 619.275 85.6333 620.709 84.8C622.175 83.9333 623.309 82.6667 624.109 81H632.159C630.992 84.5667 628.942 87.35 626.009 89.35C623.109 91.3167 619.692 92.3 615.759 92.3C612.425 92.3 609.409 91.55 606.709 90.05C604.042 88.5167 601.925 86.4 600.359 83.7C598.825 81 598.059 77.9333 598.059 74.5ZM656.138 92L648.438 78.4H645.138V92H638.138V57.1H651.238C653.938 57.1 656.238 57.5833 658.138 58.55C660.038 59.4833 661.454 60.7667 662.388 62.4C663.354 64 663.838 65.8 663.838 67.8C663.838 70.1 663.171 72.1833 661.838 74.05C660.504 75.8833 658.521 77.15 655.888 77.85L664.238 92H656.138ZM645.138 73.15H650.988C652.888 73.15 654.304 72.7 655.238 71.8C656.171 70.8667 656.638 69.5833 656.638 67.95C656.638 66.35 656.171 65.1167 655.238 64.25C654.304 63.35 652.888 62.9 650.988 62.9H645.138V73.15ZM677.169 62.75V71.5H688.919V77.05H677.169V86.3H690.419V92H670.169V57.05H690.419V62.75H677.169ZM720.53 57.1V62.75H711.23V92H704.23V62.75H694.93V57.1H720.53ZM741.838 92.35C738.571 92.35 735.571 91.5833 732.838 90.05C730.104 88.5167 727.938 86.4 726.338 83.7C724.738 80.9667 723.938 77.8833 723.938 74.45C723.938 71.05 724.738 68 726.338 65.3C727.938 62.5667 730.104 60.4333 732.838 58.9C735.571 57.3667 738.571 56.6 741.838 56.6C745.138 56.6 748.138 57.3667 750.838 58.9C753.571 60.4333 755.721 62.5667 757.288 65.3C758.888 68 759.688 71.05 759.688 74.45C759.688 77.8833 758.888 80.9667 757.288 83.7C755.721 86.4 753.571 88.5167 750.838 90.05C748.104 91.5833 745.104 92.35 741.838 92.35ZM741.838 86.1C743.938 86.1 745.788 85.6333 747.388 84.7C748.988 83.7333 750.238 82.3667 751.138 80.6C752.038 78.8333 752.488 76.7833 752.488 74.45C752.488 72.1167 752.038 70.0833 751.138 68.35C750.238 66.5833 748.988 65.2333 747.388 64.3C745.788 63.3667 743.938 62.9 741.838 62.9C739.738 62.9 737.871 63.3667 736.238 64.3C734.638 65.2333 733.388 66.5833 732.488 68.35C731.588 70.0833 731.138 72.1167 731.138 74.45C731.138 76.7833 731.588 78.8333 732.488 80.6C733.388 82.3667 734.638 83.7333 736.238 84.7C737.871 85.6333 739.738 86.1 741.838 86.1Z" fill="white"/>
<path d="M284.96 133.2L274.52 161H269.24L258.76 133.2H263.64L271.88 156.32L280.16 133.2H284.96ZM287.253 149.88C287.253 147.667 287.707 145.707 288.613 144C289.547 142.293 290.8 140.973 292.373 140.04C293.973 139.08 295.733 138.6 297.653 138.6C299.387 138.6 300.893 138.947 302.173 139.64C303.48 140.307 304.52 141.147 305.293 142.16V138.96H309.893V161H305.293V157.72C304.52 158.76 303.467 159.627 302.133 160.32C300.8 161.013 299.28 161.36 297.573 161.36C295.68 161.36 293.947 160.88 292.373 159.92C290.8 158.933 289.547 157.573 288.613 155.84C287.707 154.08 287.253 152.093 287.253 149.88ZM305.293 149.96C305.293 148.44 304.973 147.12 304.333 146C303.72 144.88 302.907 144.027 301.893 143.44C300.88 142.853 299.787 142.56 298.613 142.56C297.44 142.56 296.347 142.853 295.333 143.44C294.32 144 293.493 144.84 292.853 145.96C292.24 147.053 291.933 148.36 291.933 149.88C291.933 151.4 292.24 152.733 292.853 153.88C293.493 155.027 294.32 155.907 295.333 156.52C296.373 157.107 297.467 157.4 298.613 157.4C299.787 157.4 300.88 157.107 301.893 156.52C302.907 155.933 303.72 155.08 304.333 153.96C304.973 152.813 305.293 151.48 305.293 149.96ZM342.563 138.6C344.296 138.6 345.843 138.96 347.203 139.68C348.589 140.4 349.669 141.467 350.443 142.88C351.243 144.293 351.643 146 351.643 148V161H347.123V148.68C347.123 146.707 346.629 145.2 345.643 144.16C344.656 143.093 343.309 142.56 341.603 142.56C339.896 142.56 338.536 143.093 337.523 144.16C336.536 145.2 336.043 146.707 336.043 148.68V161H331.523V148.68C331.523 146.707 331.029 145.2 330.043 144.16C329.056 143.093 327.709 142.56 326.003 142.56C324.296 142.56 322.936 143.093 321.923 144.16C320.936 145.2 320.443 146.707 320.443 148.68V161H315.883V138.96H320.443V141.48C321.189 140.573 322.136 139.867 323.283 139.36C324.429 138.853 325.656 138.6 326.963 138.6C328.723 138.6 330.296 138.973 331.683 139.72C333.069 140.467 334.136 141.547 334.883 142.96C335.549 141.627 336.589 140.573 338.003 139.8C339.416 139 340.936 138.6 342.563 138.6ZM367.005 161.36C364.925 161.36 363.045 160.893 361.365 159.96C359.685 159 358.365 157.667 357.405 155.96C356.445 154.227 355.965 152.227 355.965 149.96C355.965 147.72 356.459 145.733 357.445 144C358.432 142.267 359.779 140.933 361.485 140C363.192 139.067 365.099 138.6 367.205 138.6C369.312 138.6 371.219 139.067 372.925 140C374.632 140.933 375.979 142.267 376.965 144C377.952 145.733 378.445 147.72 378.445 149.96C378.445 152.2 377.939 154.187 376.925 155.92C375.912 157.653 374.525 159 372.765 159.96C371.032 160.893 369.112 161.36 367.005 161.36ZM367.005 157.4C368.179 157.4 369.272 157.12 370.285 156.56C371.325 156 372.165 155.16 372.805 154.04C373.445 152.92 373.765 151.56 373.765 149.96C373.765 148.36 373.459 147.013 372.845 145.92C372.232 144.8 371.419 143.96 370.405 143.4C369.392 142.84 368.299 142.56 367.125 142.56C365.952 142.56 364.859 142.84 363.845 143.4C362.859 143.96 362.072 144.8 361.485 145.92C360.899 147.013 360.605 148.36 360.605 149.96C360.605 152.333 361.205 154.173 362.405 155.48C363.632 156.76 365.165 157.4 367.005 157.4ZM390.953 161.36C389.22 161.36 387.66 161.053 386.273 160.44C384.913 159.8 383.833 158.947 383.033 157.88C382.233 156.787 381.806 155.573 381.753 154.24H386.473C386.553 155.173 386.993 155.96 387.793 156.6C388.62 157.213 389.646 157.52 390.873 157.52C392.153 157.52 393.14 157.28 393.833 156.8C394.553 156.293 394.913 155.653 394.913 154.88C394.913 154.053 394.513 153.44 393.713 153.04C392.94 152.64 391.7 152.2 389.993 151.72C388.34 151.267 386.993 150.827 385.953 150.4C384.913 149.973 384.006 149.32 383.233 148.44C382.486 147.56 382.113 146.4 382.113 144.96C382.113 143.787 382.46 142.72 383.153 141.76C383.846 140.773 384.833 140 386.113 139.44C387.42 138.88 388.913 138.6 390.593 138.6C393.1 138.6 395.113 139.24 396.633 140.52C398.18 141.773 399.006 143.493 399.113 145.68H394.553C394.473 144.693 394.073 143.907 393.353 143.32C392.633 142.733 391.66 142.44 390.433 142.44C389.233 142.44 388.313 142.667 387.673 143.12C387.033 143.573 386.713 144.173 386.713 144.92C386.713 145.507 386.926 146 387.353 146.4C387.78 146.8 388.3 147.12 388.913 147.36C389.526 147.573 390.433 147.853 391.633 148.2C393.233 148.627 394.54 149.067 395.553 149.52C396.593 149.947 397.486 150.587 398.233 151.44C398.98 152.293 399.366 153.427 399.393 154.84C399.393 156.093 399.046 157.213 398.353 158.2C397.66 159.187 396.673 159.96 395.393 160.52C394.14 161.08 392.66 161.36 390.953 161.36ZM409.32 155.52L404.48 166.56H401.52L404.36 155.52H409.32ZM422.175 149.88C422.175 147.667 422.629 145.707 423.535 144C424.469 142.293 425.722 140.973 427.295 140.04C428.895 139.08 430.655 138.6 432.575 138.6C434.309 138.6 435.815 138.947 437.095 139.64C438.402 140.307 439.442 141.147 440.215 142.16V138.96H444.815V161H440.215V157.72C439.442 158.76 438.389 159.627 437.055 160.32C435.722 161.013 434.202 161.36 432.495 161.36C430.602 161.36 428.869 160.88 427.295 159.92C425.722 158.933 424.469 157.573 423.535 155.84C422.629 154.08 422.175 152.093 422.175 149.88ZM440.215 149.96C440.215 148.44 439.895 147.12 439.255 146C438.642 144.88 437.829 144.027 436.815 143.44C435.802 142.853 434.709 142.56 433.535 142.56C432.362 142.56 431.269 142.853 430.255 143.44C429.242 144 428.415 144.84 427.775 145.96C427.162 147.053 426.855 148.36 426.855 149.88C426.855 151.4 427.162 152.733 427.775 153.88C428.415 155.027 429.242 155.907 430.255 156.52C431.295 157.107 432.389 157.4 433.535 157.4C434.709 157.4 435.802 157.107 436.815 156.52C437.829 155.933 438.642 155.08 439.255 153.96C439.895 152.813 440.215 151.48 440.215 149.96ZM449.285 149.88C449.285 147.667 449.738 145.707 450.645 144C451.578 142.293 452.831 140.973 454.405 140.04C456.005 139.08 457.778 138.6 459.725 138.6C461.165 138.6 462.578 138.92 463.965 139.56C465.378 140.173 466.498 141 467.325 142.04V131.4H471.925V161H467.325V157.68C466.578 158.747 465.538 159.627 464.205 160.32C462.898 161.013 461.391 161.36 459.685 161.36C457.765 161.36 456.005 160.88 454.405 159.92C452.831 158.933 451.578 157.573 450.645 155.84C449.738 154.08 449.285 152.093 449.285 149.88ZM467.325 149.96C467.325 148.44 467.005 147.12 466.365 146C465.751 144.88 464.938 144.027 463.925 143.44C462.911 142.853 461.818 142.56 460.645 142.56C459.471 142.56 458.378 142.853 457.365 143.44C456.351 144 455.525 144.84 454.885 145.96C454.271 147.053 453.965 148.36 453.965 149.88C453.965 151.4 454.271 152.733 454.885 153.88C455.525 155.027 456.351 155.907 457.365 156.52C458.405 157.107 459.498 157.4 460.645 157.4C461.818 157.4 462.911 157.107 463.925 156.52C464.938 155.933 465.751 155.08 466.365 153.96C467.005 152.813 467.325 151.48 467.325 149.96ZM476.394 149.88C476.394 147.667 476.847 145.707 477.754 144C478.687 142.293 479.941 140.973 481.514 140.04C483.114 139.08 484.887 138.6 486.834 138.6C488.541 138.6 490.047 138.947 491.354 139.64C492.687 140.333 493.714 141.173 494.434 142.16V138.96H499.034V171.48H494.434V157.8C493.714 158.787 492.674 159.627 491.314 160.32C489.954 161.013 488.407 161.36 486.674 161.36C484.781 161.36 483.047 160.88 481.474 159.92C479.927 158.933 478.687 157.573 477.754 155.84C476.847 154.08 476.394 152.093 476.394 149.88ZM494.434 149.96C494.434 148.44 494.114 147.12 493.474 146C492.861 144.88 492.047 144.027 491.034 143.44C490.021 142.853 488.927 142.56 487.754 142.56C486.581 142.56 485.487 142.853 484.474 143.44C483.461 144 482.634 144.84 481.994 145.96C481.381 147.053 481.074 148.36 481.074 149.88C481.074 151.4 481.381 152.733 481.994 153.88C482.634 155.027 483.461 155.907 484.474 156.52C485.514 157.107 486.607 157.4 487.754 157.4C488.927 157.4 490.021 157.107 491.034 156.52C492.047 155.933 492.861 155.08 493.474 153.96C494.114 152.813 494.434 151.48 494.434 149.96ZM524.983 138.96V161H520.423V158.4C519.703 159.307 518.757 160.027 517.583 160.56C516.437 161.067 515.21 161.32 513.903 161.32C512.17 161.32 510.61 160.96 509.223 160.24C507.863 159.52 506.783 158.453 505.983 157.04C505.21 155.627 504.823 153.92 504.823 151.92V138.96H509.343V151.24C509.343 153.213 509.837 154.733 510.823 155.8C511.81 156.84 513.157 157.36 514.863 157.36C516.57 157.36 517.917 156.84 518.903 155.8C519.917 154.733 520.423 153.213 520.423 151.24V138.96H524.983ZM533.32 136.04C532.493 136.04 531.8 135.76 531.24 135.2C530.68 134.64 530.4 133.947 530.4 133.12C530.4 132.293 530.68 131.6 531.24 131.04C531.8 130.48 532.493 130.2 533.32 130.2C534.12 130.2 534.8 130.48 535.36 131.04C535.92 131.6 536.2 132.293 536.2 133.12C536.2 133.947 535.92 134.64 535.36 135.2C534.8 135.76 534.12 136.04 533.32 136.04ZM535.56 138.96V161H531V138.96H535.56ZM546.107 142.16C546.774 141.04 547.654 140.173 548.747 139.56C549.867 138.92 551.187 138.6 552.707 138.6V143.32H551.547C549.76 143.32 548.4 143.773 547.467 144.68C546.56 145.587 546.107 147.16 546.107 149.4V161H541.547V138.96H546.107V142.16ZM555.378 149.88C555.378 147.667 555.832 145.707 556.738 144C557.672 142.293 558.925 140.973 560.498 140.04C562.098 139.08 563.858 138.6 565.778 138.6C567.512 138.6 569.018 138.947 570.298 139.64C571.605 140.307 572.645 141.147 573.418 142.16V138.96H578.018V161H573.418V157.72C572.645 158.76 571.592 159.627 570.258 160.32C568.925 161.013 567.405 161.36 565.698 161.36C563.805 161.36 562.072 160.88 560.498 159.92C558.925 158.933 557.672 157.573 556.738 155.84C555.832 154.08 555.378 152.093 555.378 149.88ZM573.418 149.96C573.418 148.44 573.098 147.12 572.458 146C571.845 144.88 571.032 144.027 570.018 143.44C569.005 142.853 567.912 142.56 566.738 142.56C565.565 142.56 564.472 142.853 563.458 143.44C562.445 144 561.618 144.84 560.978 145.96C560.365 147.053 560.058 148.36 560.058 149.88C560.058 151.4 560.365 152.733 560.978 153.88C561.618 155.027 562.445 155.907 563.458 156.52C564.498 157.107 565.592 157.4 566.738 157.4C567.912 157.4 569.005 157.107 570.018 156.52C571.032 155.933 571.845 155.08 572.458 153.96C573.098 152.813 573.418 151.48 573.418 149.96ZM596.718 136.04C595.892 136.04 595.198 135.76 594.638 135.2C594.078 134.64 593.798 133.947 593.798 133.12C593.798 132.293 594.078 131.6 594.638 131.04C595.198 130.48 595.892 130.2 596.718 130.2C597.518 130.2 598.198 130.48 598.758 131.04C599.318 131.6 599.598 132.293 599.598 133.12C599.598 133.947 599.318 134.64 598.758 135.2C598.198 135.76 597.518 136.04 596.718 136.04ZM598.958 165.32C598.958 167.48 598.412 169.04 597.318 170C596.252 170.987 594.692 171.48 592.638 171.48H590.278V167.64H591.838C592.772 167.64 593.425 167.453 593.798 167.08C594.198 166.733 594.398 166.147 594.398 165.32V138.96H598.958V165.32ZM603.425 149.88C603.425 147.667 603.879 145.707 604.785 144C605.719 142.293 606.972 140.973 608.545 140.04C610.145 139.08 611.905 138.6 613.825 138.6C615.559 138.6 617.065 138.947 618.345 139.64C619.652 140.307 620.692 141.147 621.465 142.16V138.96H626.065V161H621.465V157.72C620.692 158.76 619.639 159.627 618.305 160.32C616.972 161.013 615.452 161.36 613.745 161.36C611.852 161.36 610.119 160.88 608.545 159.92C606.972 158.933 605.719 157.573 604.785 155.84C603.879 154.08 603.425 152.093 603.425 149.88ZM621.465 149.96C621.465 148.44 621.145 147.12 620.505 146C619.892 144.88 619.079 144.027 618.065 143.44C617.052 142.853 615.959 142.56 614.785 142.56C613.612 142.56 612.519 142.853 611.505 143.44C610.492 144 609.665 144.84 609.025 145.96C608.412 147.053 608.105 148.36 608.105 149.88C608.105 151.4 608.412 152.733 609.025 153.88C609.665 155.027 610.492 155.907 611.505 156.52C612.545 157.107 613.639 157.4 614.785 157.4C615.959 157.4 617.052 157.107 618.065 156.52C619.079 155.933 619.892 155.08 620.505 153.96C621.145 152.813 621.465 151.48 621.465 149.96ZM619.625 133.04L610.785 137.4V134.04L619.625 129.16V133.04ZM652.005 161.36C649.925 161.36 648.045 160.893 646.365 159.96C644.685 159 643.365 157.667 642.405 155.96C641.445 154.227 640.965 152.227 640.965 149.96C640.965 147.72 641.459 145.733 642.445 144C643.432 142.267 644.779 140.933 646.485 140C648.192 139.067 650.099 138.6 652.205 138.6C654.312 138.6 656.219 139.067 657.925 140C659.632 140.933 660.979 142.267 661.965 144C662.952 145.733 663.445 147.72 663.445 149.96C663.445 152.2 662.939 154.187 661.925 155.92C660.912 157.653 659.525 159 657.765 159.96C656.032 160.893 654.112 161.36 652.005 161.36ZM652.005 157.4C653.179 157.4 654.272 157.12 655.285 156.56C656.325 156 657.165 155.16 657.805 154.04C658.445 152.92 658.765 151.56 658.765 149.96C658.765 148.36 658.459 147.013 657.845 145.92C657.232 144.8 656.419 143.96 655.405 143.4C654.392 142.84 653.299 142.56 652.125 142.56C650.952 142.56 649.859 142.84 648.845 143.4C647.859 143.96 647.072 144.8 646.485 145.92C645.899 147.013 645.605 148.36 645.605 149.96C645.605 152.333 646.205 154.173 647.405 155.48C648.632 156.76 650.165 157.4 652.005 157.4ZM682.904 142.2C683.677 141.187 684.73 140.333 686.064 139.64C687.397 138.947 688.904 138.6 690.584 138.6C692.504 138.6 694.25 139.08 695.824 140.04C697.424 140.973 698.677 142.293 699.584 144C700.49 145.707 700.944 147.667 700.944 149.88C700.944 152.093 700.49 154.08 699.584 155.84C698.677 157.573 697.424 158.933 695.824 159.92C694.25 160.88 692.504 161.36 690.584 161.36C688.904 161.36 687.41 161.027 686.104 160.36C684.797 159.667 683.73 158.813 682.904 157.8V171.48H678.344V138.96H682.904V142.2ZM696.304 149.88C696.304 148.36 695.984 147.053 695.344 145.96C694.73 144.84 693.904 144 692.864 143.44C691.85 142.853 690.757 142.56 689.584 142.56C688.437 142.56 687.344 142.853 686.304 143.44C685.29 144.027 684.464 144.88 683.824 146C683.21 147.12 682.904 148.44 682.904 149.96C682.904 151.48 683.21 152.813 683.824 153.96C684.464 155.08 685.29 155.933 686.304 156.52C687.344 157.107 688.437 157.4 689.584 157.4C690.757 157.4 691.85 157.107 692.864 156.52C693.904 155.907 694.73 155.027 695.344 153.88C695.984 152.733 696.304 151.4 696.304 149.88ZM710.013 142.16C710.68 141.04 711.56 140.173 712.653 139.56C713.773 138.92 715.093 138.6 716.613 138.6V143.32H715.453C713.666 143.32 712.306 143.773 711.373 144.68C710.466 145.587 710.013 147.16 710.013 149.4V161H705.453V138.96H710.013V142.16ZM741.005 149.44C741.005 150.267 740.951 151.013 740.845 151.68H724.005C724.138 153.44 724.791 154.853 725.965 155.92C727.138 156.987 728.578 157.52 730.285 157.52C732.738 157.52 734.471 156.493 735.485 154.44H740.405C739.738 156.467 738.525 158.133 736.765 159.44C735.031 160.72 732.871 161.36 730.285 161.36C728.178 161.36 726.285 160.893 724.605 159.96C722.951 159 721.645 157.667 720.685 155.96C719.751 154.227 719.285 152.227 719.285 149.96C719.285 147.693 719.738 145.707 720.645 144C721.578 142.267 722.871 140.933 724.525 140C726.205 139.067 728.125 138.6 730.285 138.6C732.365 138.6 734.218 139.053 735.845 139.96C737.471 140.867 738.738 142.147 739.645 143.8C740.551 145.427 741.005 147.307 741.005 149.44ZM736.245 148C736.218 146.32 735.618 144.973 734.445 143.96C733.271 142.947 731.818 142.44 730.085 142.44C728.511 142.44 727.165 142.947 726.045 143.96C724.925 144.947 724.258 146.293 724.045 148H736.245ZM753.492 161.36C751.759 161.36 750.199 161.053 748.812 160.44C747.452 159.8 746.372 158.947 745.572 157.88C744.772 156.787 744.346 155.573 744.292 154.24H749.012C749.092 155.173 749.532 155.96 750.332 156.6C751.159 157.213 752.186 157.52 753.412 157.52C754.692 157.52 755.679 157.28 756.372 156.8C757.092 156.293 757.452 155.653 757.452 154.88C757.452 154.053 757.052 153.44 756.252 153.04C755.479 152.64 754.239 152.2 752.532 151.72C750.879 151.267 749.532 150.827 748.492 150.4C747.452 149.973 746.546 149.32 745.772 148.44C745.026 147.56 744.652 146.4 744.652 144.96C744.652 143.787 744.999 142.72 745.692 141.76C746.386 140.773 747.372 140 748.652 139.44C749.959 138.88 751.452 138.6 753.132 138.6C755.639 138.6 757.652 139.24 759.172 140.52C760.719 141.773 761.546 143.493 761.652 145.68H757.092C757.012 144.693 756.612 143.907 755.892 143.32C755.172 142.733 754.199 142.44 752.972 142.44C751.772 142.44 750.852 142.667 750.212 143.12C749.572 143.573 749.252 144.173 749.252 144.92C749.252 145.507 749.466 146 749.892 146.4C750.319 146.8 750.839 147.12 751.452 147.36C752.066 147.573 752.972 147.853 754.172 148.2C755.772 148.627 757.079 149.067 758.092 149.52C759.132 149.947 760.026 150.587 760.772 151.44C761.519 152.293 761.906 153.427 761.932 154.84C761.932 156.093 761.586 157.213 760.892 158.2C760.199 159.187 759.212 159.96 757.932 160.52C756.679 161.08 755.199 161.36 753.492 161.36ZM787.059 149.44C787.059 150.267 787.006 151.013 786.899 151.68H770.059C770.193 153.44 770.846 154.853 772.019 155.92C773.193 156.987 774.633 157.52 776.339 157.52C778.793 157.52 780.526 156.493 781.539 154.44H786.459C785.793 156.467 784.579 158.133 782.819 159.44C781.086 160.72 778.926 161.36 776.339 161.36C774.233 161.36 772.339 160.893 770.659 159.96C769.006 159 767.699 157.667 766.739 155.96C765.806 154.227 765.339 152.227 765.339 149.96C765.339 147.693 765.793 145.707 766.699 144C767.633 142.267 768.926 140.933 770.579 140C772.259 139.067 774.179 138.6 776.339 138.6C778.419 138.6 780.273 139.053 781.899 139.96C783.526 140.867 784.793 142.147 785.699 143.8C786.606 145.427 787.059 147.307 787.059 149.44ZM782.299 148C782.273 146.32 781.673 144.973 780.499 143.96C779.326 142.947 777.873 142.44 776.139 142.44C774.566 142.44 773.219 142.947 772.099 143.96C770.979 144.947 770.313 146.293 770.099 148H782.299ZM802.667 138.6C804.4 138.6 805.947 138.96 807.307 139.68C808.694 140.4 809.774 141.467 810.547 142.88C811.32 144.293 811.707 146 811.707 148V161H807.187V148.68C807.187 146.707 806.694 145.2 805.707 144.16C804.72 143.093 803.374 142.56 801.667 142.56C799.96 142.56 798.6 143.093 797.587 144.16C796.6 145.2 796.107 146.707 796.107 148.68V161H791.547V138.96H796.107V141.48C796.854 140.573 797.8 139.867 798.947 139.36C800.12 138.853 801.36 138.6 802.667 138.6ZM822.843 142.68V154.88C822.843 155.707 823.03 156.307 823.403 156.68C823.803 157.027 824.47 157.2 825.403 157.2H828.203V161H824.603C822.55 161 820.977 160.52 819.883 159.56C818.79 158.6 818.243 157.04 818.243 154.88V142.68H815.643V138.96H818.243V133.48H822.843V138.96H828.203V142.68H822.843ZM852.606 149.44C852.606 150.267 852.553 151.013 852.446 151.68H835.606C835.74 153.44 836.393 154.853 837.566 155.92C838.74 156.987 840.18 157.52 841.886 157.52C844.34 157.52 846.073 156.493 847.086 154.44H852.006C851.34 156.467 850.126 158.133 848.366 159.44C846.633 160.72 844.473 161.36 841.886 161.36C839.78 161.36 837.886 160.893 836.206 159.96C834.553 159 833.246 157.667 832.286 155.96C831.353 154.227 830.886 152.227 830.886 149.96C830.886 147.693 831.34 145.707 832.246 144C833.18 142.267 834.473 140.933 836.126 140C837.806 139.067 839.726 138.6 841.886 138.6C843.966 138.6 845.82 139.053 847.446 139.96C849.073 140.867 850.34 142.147 851.246 143.8C852.153 145.427 852.606 147.307 852.606 149.44ZM847.846 148C847.82 146.32 847.22 144.973 846.046 143.96C844.873 142.947 843.42 142.44 841.686 142.44C840.113 142.44 838.766 142.947 837.646 143.96C836.526 144.947 835.86 146.293 835.646 148H847.846Z" fill="white"/>
<rect x="1030.28" y="158" width="404.819" height="44.9292" transform="rotate(66.7543 1030.28 158)" fill="#D42300"/>
<rect x="144.282" y="86" width="404.819" height="44.9292" transform="rotate(66.7543 144.282 86)" fill="#D42300"/>
<rect x="860.282" y="-236" width="404.819" height="44.9292" transform="rotate(66.7543 860.282 -236)" fill="#D42300"/>
<rect x="-22.718" y="-304" width="404.819" height="44.9292" transform="rotate(66.7543 -22.718 -304)" fill="#D42300"/>
</g>
<defs>
<clipPath id="clip0_80_56">
<rect width="1116" height="215" fill="white"/>
</clipPath>
</defs>
</svg>
